<svg xmlns="http://www.w3.org/2000/svg" enable-background="new 0 0 24 24" viewBox="0 0 24 24"><path fill="#FFFFFF" d="M3.497 21.498c-.878 0-1.78-.256-2.605-1.004-1.712-1.552-.945-4.513 2.158-8.339.24-.294.661-.365.983-.162.321.203.44.614.277.957-.625 1.313-.696 2.357-.198 2.941.412.483 1.249.644 2.082.398 5.003-1.423 16.633-4.731 16.707-4.751.539-.144.92.145 1.047.47.126.325.042.791-.443 1.045-.664.304-15.39 7.016-16.771 7.596C5.878 21.008 4.71 21.498 3.497 21.498zM2.393 15.732c-.867 1.545-1.248 2.966-.493 3.65 1.164 1.055 2.598.579 4.215-.101.679-.285 4.611-2.064 8.492-3.827-4.052 1.152-7.996 2.274-7.996 2.274-1.405.417-2.837.076-3.64-.865C2.762 16.62 2.525 16.25 2.393 15.732zM5.75 11.5c-.093 0-.187-.017-.278-.054-.385-.154-.572-.59-.418-.975l2-5c.133-.334.49-.527.838-.458C8.245 5.082 8.5 5.391 8.5 5.75v5c0 .414-.336.75-.75.75S7 11.164 7 10.75V9.645l-.554 1.384C6.329 11.322 6.047 11.5 5.75 11.5z"/><path fill="#FFFFFF" d="M7.75 11.5c-.093 0-.187-.017-.278-.054-.385-.154-.572-.59-.418-.975l2-5C9.208 5.087 9.646 4.9 10.028 5.054c.385.154.572.59.418.975l-2 5C8.329 11.322 8.047 11.5 7.75 11.5zM10.636 11.5c-.093 0-.187-.017-.278-.054-.385-.154-.572-.59-.418-.975l2-5c.154-.384.593-.571.975-.418.385.154.572.59.418.975l-2 5C11.215 11.322 10.934 11.5 10.636 11.5zM13.5 11.5c-.093 0-.187-.017-.278-.054-.385-.154-.572-.59-.418-.975l2-5c.154-.384.591-.571.975-.418.385.154.572.59.418.975l-2 5C14.079 11.322 13.797 11.5 13.5 11.5z"/><path fill="#FFFFFF" d="M15.75 11.5c-.331 0-.633-.22-.724-.554l-.706-2.61c-.071-.263.006-.543.201-.733l2.456-2.39c.297-.289.772-.282 1.061.015.289.297.282.771-.015 1.061l-2.14 2.083.591 2.184c.108.4-.128.812-.528.92C15.88 11.492 15.814 11.5 15.75 11.5zM20.25 11.5h-2c-.249 0-.481-.124-.621-.33s-.167-.468-.075-.699l2-5C19.667 5.187 19.943 5 20.25 5h2C22.664 5 23 5.336 23 5.75S22.664 6.5 22.25 6.5h-1.492l-1.4 3.5h.892c.414 0 .75.336.75.75S20.664 11.5 20.25 11.5z"/><path fill="#FFFFFF" d="M21.25,9h-2c-0.414,0-0.75-0.336-0.75-0.75s0.336-0.75,0.75-0.75h2C21.664,7.5,22,7.836,22,8.25S21.664,9,21.25,9z"/></svg>